<svg width="100" height="50" viewBox="0 0 100 50" fill="none" xmlns="http://www.w3.org/2000/svg">
<path d="M45 50H25C18.0833 50 12.1883 47.5617 7.315 42.685C2.44167 37.8083 0.00333675 31.9133 3.41297e-06 25C-0.00332992 18.0867 2.435 12.1917 7.315 7.315C12.195 2.43833 18.09 0 25 0H45V10H25C20.8333 10 17.2917 11.4583 14.375 14.375C11.4583 17.2917 10 20.8333 10 25C10 29.1667 11.4583 32.7083 14.375 35.625C17.2917 38.5417 20.8333 40 25 40H45V50ZM30 30V20H70V30H30ZM55 50V40H75C79.1667 40 82.7083 38.5417 85.625 35.625C88.5417 32.7083 90 29.1667 90 25C90 20.8333 88.5417 17.2917 85.625 14.375C82.7083 11.4583 79.1667 10 75 10H55V0H75C81.9167 0 87.8133 2.43833 92.69 7.315C97.5667 12.1917 100.003 18.0867 100 25C99.9967 31.9133 97.5583 37.81 92.685 42.69C87.8117 47.57 81.9167 50.0067 75 50H55Z" fill="white"/>
</svg>
